<svg xmlns="http://www.w3.org/2000/svg" width="128" height="128" viewBox="0 0 128 128" fill="none">
  <circle cx="64" cy="64" r="50" stroke="#333" stroke-width="16"/>
  <path d="M64 14 A50 50 0 1 1 64 114 A50 50 0 0 1 64 14" fill="none" stroke="#FF475E" stroke-width="20" stroke-dasharray="78 240"/>
  <path d="M64 14 A50 50 0 1 1 64 114 A50 50 0 0 1 64 14" fill="none" stroke="#2ED573" stroke-width="20" stroke-dasharray="78 240" stroke-dashoffset="78"/>
  <path d="M64 14 A50 50 0 1 1 64 114 A50 50 0 0 1 64 14" fill="none" stroke="#1E90FF" stroke-width="20" stroke-dasharray="78 240" stroke-dashoffset="156"/>
  
  <circle cx="64" cy="64" r="20" fill="#1e1e1e"/>
  <circle cx="64" cy="64" r="12" fill="#ffffff"/>
  
  <rect x="85" y="35" width="10" height="38" rx="2" fill="#ffffff" transform="rotate(35 90 55)"/>
</svg>